<mxfile host="app.diagrams.net" modified="2023-04-03T11:46:59.747Z" agent="Mozilla/5.0 (X11; Linux x86_64) AppleWebKit/537.36 (KHTML, like Gecko) Chrome/107.0.0.0 Safari/537.36" version="21.1.4" etag="lBaruN4dM1bwpLfaFB_E" type="github">
  <diagram name="PÃ¡gina-1" id="4ZzELvGWjEaXNLalthoA">
    <mxGraphModel>
      <root>
        <mxCell id="0" />
        <mxCell id="1" parent="0" />
      </root>
    </mxGraphModel>
  </diagram>
</mxfile>
